# xmcd
#
# Track frame offsets: 
#        150
#        16441
#        33240
#        46961
#        61200
#        71396
#        84565
#        100247
#        113585
#        125801
#        137324
#        149601
#
# Disc length: 2181 seconds
#
# Revision: 0
# Processed by: cddbd v1.5.2PL0 Copyright (c) Steve Scherf et al.
# Submitted via: ExactAudioCopy v0.90b4
#
DISCID=a008830c
DTITLE=Ike and Tina Turner - River Deep - Mountain High
DYEAR=1966
DGENRE=R&B
TTITLE0=River Deep - Mountain High
TTITLE1=I Idolize You
TTITLE2=A Love Like Yours (Don't Come Knocking Every Day)
TTITLE3=A Fool In Love
TTITLE4=Make 'em Wait
TTITLE5=Hold On Baby
TTITLE6=I'll Never Need More Than This
TTITLE7=Save The Last Dance For Me
TTITLE8=Oh Baby! (Things Ain't What They Used To Be)
TTITLE9=Every Day I Have To Cry
TTITLE10=Such A Fool For You
TTITLE11=It's Gonna Work Out Fine
EXTD=
EXTT0=
EXTT1=
EXTT2=
EXTT3=
EXTT4=
EXTT5=
EXTT6=
EXTT7=
EXTT8=
EXTT9=
EXTT10=
EXTT11=
PLAYORDER=
